<svg xmlns="http://www.w3.org/2000/svg" viewBox="0 0 152.69 100"><defs><style>.cls-1{fill:#fff;}</style></defs><title>Stacked-White</title><g id="Layer_2" data-name="Layer 2"><g id="Layer_1-2" data-name="Layer 1"><path class="cls-1" d="M31.71,79.34a10.6,10.6,0,0,0-10.6,10.33c0,6.08,4.35,10.33,10.6,10.33A10.6,10.6,0,0,0,42.3,89.67C42.3,83.59,37.94,79.34,31.71,79.34Zm4.4,10.33a4.31,4.31,0,0,1-4.4,4.5,4.36,4.36,0,0,1-4.41-4.5,4.31,4.31,0,0,1,4.41-4.5A4.26,4.26,0,0,1,36.11,89.67Z"/><path class="cls-1" d="M70.73,79.34a11.08,11.08,0,0,0-7.4,2.88,10.58,10.58,0,0,0-7.6-2.88c-5.14,0-10.69,4-10.69,10.33v9a.92.92,0,0,0,.92.92h4.35a.92.92,0,0,0,.92-.92v-9a4.31,4.31,0,0,1,4.41-4.5,4.27,4.27,0,0,1,4.41,4.5v9a.92.92,0,0,0,.92.92h4.35a.92.92,0,0,0,.92-.92v-9a4.26,4.26,0,0,1,4.4-4.5,4.31,4.31,0,0,1,4.41,4.5v9a.92.92,0,0,0,.92.92h4.35a.92.92,0,0,0,.92-.92v-9C81.24,83.59,76.92,79.34,70.73,79.34Z"/><path class="cls-1" d="M94.58,79.34A10.61,10.61,0,0,0,84,89.67C84,95.75,88.34,100,94.58,100a10.6,10.6,0,0,0,10.6-10.33C105.18,83.59,100.82,79.34,94.58,79.34ZM99,89.67a4.32,4.32,0,0,1-4.41,4.5,4.36,4.36,0,0,1-4.41-4.5,4.31,4.31,0,0,1,4.41-4.5A4.27,4.27,0,0,1,99,89.67Z"/><path class="cls-1" d="M122.74,80.46a9.35,9.35,0,0,0-4.12-1.11,10.46,10.46,0,0,0-10.88,10.31c0,6.09,4.35,10.34,10.6,10.34a10.61,10.61,0,0,0,10.6-10.33V70.52a.87.87,0,0,0-.87-.87h-4.46a.87.87,0,0,0-.87.87Zm0,9.21a4.31,4.31,0,0,1-4.4,4.5,4.36,4.36,0,0,1-4.41-4.5,4.31,4.31,0,0,1,4.41-4.5A4.26,4.26,0,0,1,122.74,89.67Z"/><path class="cls-1" d="M142.09,79.34A10.6,10.6,0,0,0,131.5,89.67c0,6.08,4.35,10.33,10.59,10.33a10.6,10.6,0,0,0,10.6-10.33C152.69,83.59,148.33,79.34,142.09,79.34Zm4.41,10.33a4.31,4.31,0,0,1-4.41,4.5,4.36,4.36,0,0,1-4.4-4.5,4.41,4.41,0,1,1,8.81,0Z"/><path class="cls-1" d="M20.4,79.34H13.79a.7.7,0,0,0-.5.2L7.38,85.46A.7.7,0,0,1,6.19,85V70.34a.69.69,0,0,0-.69-.69H.7a.69.69,0,0,0-.7.69v29a.7.7,0,0,0,.7.7H5.5a.69.69,0,0,0,.69-.7V95.52A.71.71,0,0,1,6.4,95l1.88-1.89a.7.7,0,0,1,1.06.09l4.74,6.48a.7.7,0,0,0,.56.29h5.79A.7.7,0,0,0,21,98.89L13.56,88.7a.68.68,0,0,1,.07-.9l7.27-7.27A.7.7,0,0,0,20.4,79.34Z"/><path class="cls-1" d="M97.94,8a4.73,4.73,0,0,0-6.69,0l-.11.13a4.75,4.75,0,0,0-1.26,2.8h0c0,.16,0,.33,0,.5s0,.23,0,.34a8.46,8.46,0,0,1-10.35,7.41L78.84,19a11,11,0,0,0-2.74-.31,10.89,10.89,0,0,0-7.26,2.92c-.11.1-.23.18-.33.29A11,11,0,0,0,84,37.39a12.4,12.4,0,0,0,1.23-1.5,10.93,10.93,0,0,0,1.67-8.81c-.06-.2-.11-.4-.16-.6a.29.29,0,0,1,0-.09,8.46,8.46,0,0,1,7.54-10.34l.18,0L95,16h0a4.71,4.71,0,0,0,2.9-1.36,4.24,4.24,0,0,0,.5-.62A4.72,4.72,0,0,0,97.94,8Z"/><path class="cls-1" d="M76.27,59.27A29.64,29.64,0,1,1,83.14.81,3.18,3.18,0,1,1,81.67,7a23.56,23.56,0,0,0-5.4-.63A23.28,23.28,0,1,0,99.55,29.64a23.68,23.68,0,0,0-.64-5.42,3.18,3.18,0,1,1,6.18-1.47A29.6,29.6,0,0,1,76.27,59.27Z"/></g></g></svg>