<?xml version="1.0" standalone="no"?>
<!DOCTYPE svg PUBLIC "-//W3C//DTD SVG 20010904//EN"
 "http://www.w3.org/TR/2001/REC-SVG-20010904/DTD/svg10.dtd">
<svg version="1.1" id="Layer_1" xmlns="http://www.w3.org/2000/svg" xmlns:xlink="http://www.w3.org/1999/xlink" x="0px" y="0px" viewBox="0 0 299.7 154" style="enable-background:new 0 0 299.7 154;" xml:space="preserve">
<style type="text/css">
    .st2{fill:#FFFFFF;}
    .st3{fill:#f8a81a;}
</style>

<g>
    <path class="st3" d="M42.3,124c0,13.5,11.3,24.9,24.9,24.9c13.8,0,24.9-11.3,24.9-24.9S81,99.1,67.2,99.1S42.3,110.5,42.3,124z
	 M67.2,110.7c7.5,0,13.5,6,13.5,13.5c0,7.5-6,13.5-13.5,13.5s-13.5-6-13.5-13.5C53.7,116.8,59.7,110.7,67.2,110.7z"></path>
    <path class="st3" d="M272,98.6c-13.8,0-24.9,11.3-24.9,24.9c0,13.5,11.3,24.9,24.9,24.9s24.9-11.3,24.9-24.9S285.7,98.6,272,98.6z
	 M272,137.3c-7.5,0-13.5-6-13.5-13.5s6-13.5,13.5-13.5s13.5,6,13.5,13.5S279.5,137.3,272,137.3z"></path> <!-- two letters O -->

    <path class="st3" d="M197.4,124c0-13.5-11.1-24.9-24.9-24.9s-24.9,11.3-24.9,24.9s11.3,24.9,24.9,24.9
	C186,148.9,197.4,137.8,197.4,124z M172.5,137.5c-7.5,0-13.5-6-13.5-13.5c0-7.5,6-13.5,13.5-13.5c7.5,0,13.5,6,13.5,13.5
	C186,131.5,180,137.5,172.5,137.5z"></path> <!-- another one O -->

    <polygon class="st2" points="50.1,99.1 32.7,99.1 16.5,115.3 16.5,99.1 4.2,99.1 4.2,148.1 16.5,148.1 16.5,132.7 32.2,148.1 
	49.8,148.1 25.7,124 	"></polygon>  <!-- K -->
    <path class="st2" d="M222.2,99.4l-21.7-0.2v49.7h21.7v-0.2c12.8-1.2,22.7-11.8,22.7-24.9C244.9,111.2,235,100.3,222.2,99.4z
	 M219.8,137.5h-0.5h-6.5v-26.8h7.7c7.2,0.2,13,6,13,13.5C233.6,131.7,227.3,137.5,219.8,137.5z"></path> <!-- D -->
    <polygon class="st2" points="131.7,148.9 144.2,148.9 144.2,100.1 131.9,100.1 119.8,111.7 107.5,100.1 95.2,100.1 95.2,148.9 
	108,148.9 108,118 119.4,128.8 119.8,129.3 131.7,117.7 	"></polygon> <!-- M -->

     <path class="st2" d="M150.5,83.7l28.3-11.6l11.8-28.3L179,15.3L150.8,3.7l-28.3,11.6v0.2l-11.8,28.3l11.6,28.3L150.5,83.7z
	 M132.9,26L132.9,26l17.9-7.5l17.9,7.5l7.5,17.9l-7.5,17.9l-17.9,7.5l-17.9-7.5l-7.5-17.9L132.9,26z"></path> 
    <polygon class="st2" points="150.8,58.6 161.1,54.2 165.5,43.6 161.1,33.2 150.8,28.9 140.4,33.2 136,43.6 140.1,54.2"></polygon>
</g>

</svg>